PathFileType   4   (X/Y/Z)
DataRate	CameraRate	NumFrames	NumMarkers	Units	OrigDataRate	OrigDataStartFrame	OrigNumFrames
120.0	120.0	5	37	mm	120.0	54	142
Frame#	Time	midhip	hip_r	hip_l	knee_r	knee_l	ankle_r	ankle_l	midasis	asis_r	asis_l	psis_r	psis_l	epicondLat_r	epicondLat_l	epicondMed_r	epicondMed_l	malleolusLat_r	malleolusLat_l	malleolusMedv_r	malleolusMedv_l	neck	subclavicle_r	subclavicle_l	sternalnotch	xyphoidprocess	thighwand_r	thighwand_l	upperleg1_r	upperleg1_l	upperleg2_r	upperleg2_l	shankwand_r	shankwand_l	lowerleg1_r	lowerleg1_l	toe_r	toe_l
 	 	X1	Y1	Z1	X2	Y2	Z2	X3	Y3	Z3	X4	Y4	Z4	X5	Y5	Z5	X6	Y6	Z6	X7	Y7	Z7	X8	Y8	Z8	X9	Y9	Z9	X10	Y10	Z10	X11	Y11	Z11	X12	Y12	Z12	X13	Y13	Z13	X14	Y14	Z14	X15	Y15	Z15	X16	Y16	Z16	X17	Y17	Z17	X18	Y18	Z18	X19	Y19	Z19	X20	Y20	Z20	X21	Y21	Z21	X22	Y22	Z22	X23	Y23	Z23	X24	Y24	Z24	X25	Y25	Z25	X26	Y26	Z26	X27	Y27	Z27	X28	Y28	Z28	X29	Y29	Z29	X30	Y30	Z30	X31	Y31	Z31	X32	Y32	Z32	X33	Y33	Z33	X34	Y34	Z34	X35	Y35	Z35	X36	Y36	Z36	X37	Y37	Z37

	54	0.62500	963.028	878.739	-182.981	956.157	852.429	-115.035	960.390	858.703	-265.274	883.918	458.833	-122.975	1115.093	461.178	-263.046	753.648	73.163	-159.879	1244.760	87.826	-254.742	1043.656	943.254	-184.087	1040.278	938.247	-64.181	1047.035	948.262	-303.992	854.507	982.072	-155.387	862.223	980.260	-241.511	895.241	455.599	-65.672	1114.076	460.457	-321.033	867.751	464.852	-173.997	1107.152	435.714	-211.311	742.648	73.198	-121.421	1221.582	79.106	-284.871	765.146	87.772	-187.496	1250.208	106.465	-230.033	872.845	1414.362	-161.443	994.511	1325.298	-121.314	993.992	1331.616	-225.932	978.245	1338.138	-170.210	1042.795	1167.787	-192.413	963.026	547.451	9.326	1221.871	585.009	-280.431	979.651	614.700	-52.202	1135.091	609.301	-314.206	963.792	530.969	-80.281	1143.796	521.630	-309.682	805.120	183.819	-23.335	1180.609	212.593	-374.939	780.559	164.252	-98.794	1194.345	178.438	-302.205	871.780	38.683	-139.118	1364.645	82.210	-281.541
	55	0.63333	969.227	877.765	-182.986	962.497	851.483	-115.697	967.402	857.988	-265.905	888.480	458.195	-123.689	1120.743	460.142	-262.672	754.186	73.806	-160.020	1249.125	86.265	-253.412	1050.391	942.328	-184.218	1046.476	937.134	-64.281	1054.307	947.522	-304.155	860.846	981.364	-156.270	869.159	979.608	-242.325	899.501	454.955	-66.328	1119.926	459.356	-320.661	872.771	463.854	-174.692	1112.431	435.340	-210.461	743.059	74.062	-121.600	1225.950	77.561	-283.549	765.298	88.190	-187.620	1255.074	104.953	-228.985	879.410	1413.496	-162.263	1000.983	1324.705	-121.814	1000.691	1330.610	-226.139	984.939	1337.338	-170.714	1049.509	1166.945	-192.055	967.328	546.558	8.931	1228.098	583.762	-279.850	984.619	613.522	-52.456	1141.461	608.497	-314.139	968.521	529.614	-80.551	1149.856	520.394	-309.100	806.396	184.282	-23.555	1185.543	211.035	-373.883	781.568	164.795	-99.070	1198.639	176.739	-301.296	871.878	38.660	-139.058	1369.069	80.014	-280.191
	56	0.64167	975.466	876.962	-182.816	968.986	850.590	-116.450	974.537	857.382	-266.624	893.192	457.584	-124.411	1126.416	459.148	-262.290	754.804	74.548	-160.132	1252.490	84.443	-252.050	1057.258	941.483	-184.419	1052.823	936.057	-64.449	1061.693	946.910	-304.389	867.275	980.759	-157.207	876.233	979.026	-243.162	903.919	454.352	-66.994	1125.817	458.288	-320.281	878.637	462.447	-175.930	1118.722	433.907	-210.497	743.531	75.042	-121.756	1229.337	75.828	-282.228	765.403	88.838	-187.851	1258.528	103.205	-227.893	885.950	1412.688	-162.898	1007.802	1324.766	-122.631	1007.731	1329.595	-226.401	991.676	1336.655	-171.282	1057.054	1166.471	-190.869	971.795	545.719	8.490	1234.383	582.457	-279.236	989.044	612.668	-52.858	1147.494	607.286	-313.894	973.503	528.473	-81.228	1156.173	519.186	-308.922	807.705	184.877	-23.797	1189.996	209.375	-372.806	783.206	165.235	-99.462	1201.935	174.877	-300.278	871.995	38.660	-138.977	1372.485	77.256	-278.591
	57	0.65000	982.269	876.652	-182.719	975.622	849.760	-117.279	981.797	856.876	-267.413	898.018	457.012	-125.118	1132.065	458.192	-261.893	755.482	75.405	-160.201	1255.037	82.468	-250.691	1064.259	940.717	-184.684	1059.323	935.029	-64.674	1069.196	946.406	-304.694	873.832	980.248	-158.195	883.429	978.520	-244.024	908.468	453.800	-67.649	1131.701	457.252	-319.884	883.923	461.874	-177.485	1124.431	432.649	-209.951	744.051	76.152	-121.876	1231.921	74.000	-280.939	766.367	89.992	-188.008	1260.232	100.799	-226.263	892.506	1411.866	-163.797	1014.538	1324.360	-123.233	1014.645	1328.836	-226.980	998.484	1336.084	-171.924	1064.299	1165.954	-190.826	976.425	544.945	8.030	1240.707	581.065	-278.579	993.558	612.291	-53.384	1153.979	605.893	-313.119	978.279	527.494	-82.402	1162.185	518.018	-308.304	809.042	185.620	-24.046	1194.026	207.683	-371.739	784.789	165.809	-100.083	1204.488	172.926	-299.223	872.137	38.689	-138.867	1375.064	73.991	-276.759
	58	0.65833	989.453	876.523	-182.920	982.401	848.998	-118.159	989.179	856.454	-268.251	902.945	456.493	-125.798	1137.630	457.283	-261.488	756.196	76.387	-160.225	1257.011	80.462	-249.381	1071.393	940.025	-185.002	1065.971	934.060	-64.944	1076.815	945.989	-305.061	880.563	979.809	-159.216	890.743	978.096	-244.910	913.131	453.312	-68.279	1137.523	456.260	-319.479	888.289	462.466	-178.742	1130.316	431.917	-209.125	744.599	77.398	-121.956	1233.946	72.180	-279.719	767.782	91.074	-187.932	1261.186	98.225	-224.418	899.036	1411.091	-164.814	1021.500	1323.776	-123.657	1021.709	1328.521	-227.933	1005.381	1335.577	-172.635	1071.902	1165.720	-191.834	981.191	544.240	7.571	1247.041	579.566	-277.870	999.047	611.837	-53.893	1160.880	605.018	-312.153	982.990	526.700	-83.399	1168.488	517.182	-307.450	810.412	186.529	-24.286	1197.734	206.049	-370.726	786.091	166.751	-100.438	1207.255	171.048	-298.223	872.307	38.746	-138.725	1377.038	70.321	-274.751
